C:\Users\nbianco\repos\ankle-perturb-sim\results\experiments\subject18\walk2\expdata\ground_reaction_unfiltered.mot
version=1
nRows=27
nColumns=19
inDegrees=no
endheader
time	ground_force_r_vx	ground_force_r_vy	ground_force_r_vz	ground_force_r_px	ground_force_r_py	ground_force_r_pz	ground_force_l_vx	ground_force_l_vy	ground_force_l_vz	ground_force_l_px	ground_force_l_py	ground_force_l_pz	ground_torque_r_x	ground_torque_r_y	ground_torque_r_z	ground_torque_l_x	ground_torque_l_y	ground_torque_l_z
1.341667	-0.002013	-0.016901	0.001698	-0.000253	-0.000000	0.000077	51.574978	632.216521	31.841027	0.584657	0.000000	-0.562285	0.000000	0.000000	0.000000	0.000000	-5.759662	-0.000000
1.342708	-0.003196	-0.016957	0.001676	-0.000196	-0.000000	0.000054	52.295256	634.312264	31.680296	0.583432	0.000000	-0.562210	0.000000	0.000000	0.000000	0.000000	-5.799337	-0.000000
1.343750	-0.004324	-0.014975	0.001445	-0.000098	-0.000000	0.000017	53.014540	636.383830	31.517425	0.582215	0.000000	-0.562134	0.000000	0.000000	0.000000	0.000000	-5.838011	-0.000000
1.344792	-0.005245	-0.010625	0.000974	0.000038	0.000000	-0.000032	53.733497	638.429199	31.353206	0.581005	0.000000	-0.562056	0.000000	0.000000	0.000000	0.000000	-5.875688	-0.000000
1.345833	-0.005789	-0.003768	0.000253	0.000208	0.000000	-0.000091	54.453015	640.446359	31.188391	0.579803	0.000000	-0.561978	0.000000	0.000000	0.000000	0.000000	-5.912374	-0.000000
1.346875	-0.005785	0.005470	-0.000700	0.000401	0.000000	-0.000155	55.174185	642.433320	31.023675	0.578608	0.000000	-0.561898	0.000000	0.000000	0.000000	0.000000	-5.948084	-0.000000
1.347917	-0.005080	0.016638	-0.001837	0.000599	0.000000	-0.000219	55.898257	644.388130	30.859689	0.577420	0.000000	-0.561818	0.000000	0.000000	0.000000	0.000000	-5.982837	-0.000000
1.348958	-0.003562	0.028927	-0.003070	0.000780	0.000000	-0.000274	56.626597	646.308893	30.696993	0.576239	0.000000	-0.561736	0.000000	0.000000	0.000000	0.000000	-6.016655	-0.000000
1.350000	-0.001187	0.041165	-0.004278	0.000918	0.000000	-0.000311	57.360627	648.193778	30.536068	0.575065	0.000000	-0.561654	0.000000	0.000000	0.000000	0.000000	-6.049567	-0.000000
1.351042	0.001999	0.051854	-0.005307	0.000983	0.000000	-0.000321	58.101766	650.041035	30.377317	0.573897	0.000000	-0.561572	0.000000	0.000000	0.000000	0.000000	-6.081603	-0.000000
1.352083	0.005837	0.059268	-0.005982	0.000948	0.000000	-0.000295	58.851367	651.848997	30.221068	0.572736	0.000000	-0.561489	0.000000	0.000000	0.000000	0.000000	-6.112798	-0.000000
1.353125	0.010045	0.061590	-0.006123	0.000788	0.000000	-0.000226	59.610652	653.616087	30.067575	0.571581	0.000000	-0.561407	0.000000	0.000000	0.000000	0.000000	-6.143188	-0.000000
1.354167	0.014219	0.057109	-0.005562	0.000488	0.000000	-0.000111	60.380650	655.340817	29.917030	0.570433	0.000000	-0.561324	0.000000	0.000000	0.000000	0.000000	-6.172813	-0.000000
1.355208	0.017844	0.044457	-0.004171	0.000044	-0.000000	0.000051	61.162147	657.021780	29.769566	0.569291	0.000000	-0.561241	0.000000	0.000000	0.000000	0.000000	-6.201712	-0.000000
1.356250	0.020326	0.022872	-0.001884	-0.000530	-0.000000	0.000252	61.955642	658.657646	29.625274	0.568154	0.000000	-0.561159	0.000000	0.000000	0.000000	0.000000	-6.229926	-0.000000
1.357292	0.021044	-0.007547	0.001274	-0.001200	-0.000000	0.000478	62.761316	660.247144	29.484216	0.567024	0.000000	-0.561078	0.000000	0.000000	0.000000	0.000000	-6.257496	-0.000000
1.358333	0.019416	-0.045603	0.005164	-0.001914	-0.000000	0.000711	63.579011	661.789053	29.346435	0.565900	0.000000	-0.560996	0.000000	0.000000	0.000000	0.000000	-6.284463	-0.000000
1.359375	0.014981	-0.088844	0.009524	-0.002597	-0.000000	0.000922	64.408228	663.282176	29.211970	0.564781	0.000000	-0.560916	0.000000	0.000000	0.000000	0.000000	-6.310866	-0.000000
1.360417	0.007485	-0.133508	0.013959	-0.003158	-0.000000	0.001082	65.248136	664.725330	29.080874	0.563669	0.000000	-0.560837	0.000000	0.000000	0.000000	0.000000	-6.336742	-0.000000
1.361458	-0.003024	-0.174613	0.017954	-0.003496	-0.000000	0.001156	66.097601	666.117322	28.953219	0.562562	0.000000	-0.560758	0.000000	0.000000	0.000000	0.000000	-6.362127	-0.000000
1.362500	-0.016125	-0.206218	0.020906	-0.003507	-0.000000	0.001112	66.955216	667.456933	28.829115	0.561461	0.000000	-0.560680	0.000000	0.000000	0.000000	0.000000	-6.387050	-0.000000
1.363542	-0.030964	-0.221881	0.022170	-0.003099	-0.000000	0.000922	67.819356	668.742901	28.708711	0.560366	0.000000	-0.560602	0.000000	0.000000	0.000000	0.000000	-6.411538	-0.000000
1.364583	-0.046240	-0.215297	0.021123	-0.002205	-0.000000	0.000567	68.688229	669.973908	28.592207	0.559277	0.000000	-0.560526	0.000000	0.000000	0.000000	0.000000	-6.435614	-0.000000
1.365625	-0.060237	-0.181106	0.017252	-0.000799	-0.000000	0.000047	69.559940	671.148574	28.479852	0.558193	0.000000	-0.560449	0.000000	0.000000	0.000000	0.000000	-6.459292	-0.000000
1.366667	-0.070918	-0.115815	0.010242	0.001092	0.000000	-0.000623	70.432558	672.265446	28.371946	0.557115	0.000000	-0.560373	0.000000	0.000000	0.000000	0.000000	-6.482583	-0.000000
1.367708	-0.076079	-0.018743	0.000073	0.003373	0.000000	-0.001403	71.304174	673.323004	28.268833	0.556042	0.000000	-0.560298	0.000000	0.000000	0.000000	0.000000	-6.505488	-0.000000
1.368750	-0.073576	0.107093	-0.012896	0.005874	0.000000	-0.002228	72.172965	674.319662	28.170895	0.554974	0.000000	-0.560222	0.000000	0.000000	0.000000	0.000000	-6.528001	-0.000000
